<?xml version="1.0" standalone="no"?>
<!DOCTYPE svg PUBLIC "-//W3C//DTD SVG 20010904//EN"
 "http://www.w3.org/TR/2001/REC-SVG-20010904/DTD/svg10.dtd">
<svg version="1.0" xmlns="http://www.w3.org/2000/svg"
 width="512.000000pt" height="512.000000pt" viewBox="0 0 512.000000 512.000000"
 preserveAspectRatio="xMidYMid meet">
<metadata>
Created by potrace 1.14, written by Peter Selinger 2001-2017
</metadata>
<g transform="translate(0.000000,512.000000) scale(0.100000,-0.100000)"
fill="#000000" stroke="none">
<path d="M2379 5116 c-2 -2 -40 -6 -83 -10 -44 -4 -82 -8 -85 -10 -3 -2 -31
-7 -61 -11 -30 -3 -75 -11 -100 -17 -25 -5 -56 -12 -70 -14 -52 -10 -236 -66
-326 -100 -412 -154 -826 -454 -1084 -784 -19 -25 -37 -47 -40 -50 -7 -7 -45
-61 -105 -150 -176 -260 -312 -589 -374 -905 -40 -200 -46 -267 -45 -515 0
-183 3 -241 19 -345 3 -16 7 -43 9 -60 16 -111 65 -303 115 -445 46 -132 147
-351 184 -397 5 -7 11 -39 12 -72 6 -104 74 -203 160 -231 22 -7 54 -36 93
-83 115 -139 278 -293 436 -411 321 -240 732 -415 1112 -471 22 -4 50 -8 64
-11 144 -26 530 -26 708 1 75 12 90 14 142 25 30 6 66 13 80 16 193 37 522
170 735 299 236 142 478 348 646 550 41 51 65 71 84 73 93 7 173 114 170 227
-1 43 8 69 66 185 91 183 184 432 205 545 3 15 11 55 19 89 36 154 49 296 50
521 0 166 -6 285 -19 360 -3 17 -8 44 -10 60 -3 17 -9 53 -15 80 -6 28 -13 61
-15 75 -31 156 -115 389 -206 572 -335 671 -954 1167 -1680 1344 -58 14 -116
28 -130 30 -70 11 -85 14 -195 30 -44 6 -460 15 -466 10z"/>
</g>
</svg>
